<?xml version="1.0" encoding="UTF-8"?>
<svg version="1.1" xmlns="http://www.w3.org/2000/svg" width="1024" height="1024">
<path d="M0 0 C5.85875038 5.50071564 10.28333774 12.19078562 10.73593684 20.40144307 C10.73667582 21.25335557 10.7374148 22.10526807 10.73817617 22.98299611 C10.74144836 23.97131381 10.74472055 24.95963151 10.74809191 25.97789824 C10.74660828 27.06350834 10.74512466 28.14911844 10.74359608 29.26762581 C10.74594831 30.4257812 10.74830054 31.58393658 10.75072405 32.77718759 C10.75625374 36.00676079 10.7572851 39.23630009 10.75644664 42.4658768 C10.756616 45.97388407 10.76252053 49.48188239 10.7676875 52.98988521 C10.77702103 59.95429992 10.78093681 66.91870827 10.78320647 73.88312845 C10.78616656 82.22240631 10.79486282 90.56167572 10.80362075 98.90094916 C10.82447363 119.05849547 10.83493611 139.21604325 10.84375035 159.37359784 C10.84795549 168.90721186 10.85317765 178.44082525 10.85843488 187.97443875 C10.87632544 220.60115802 10.89132219 253.22787746 10.89875507 285.85460091 C10.89922983 287.90324495 10.89970572 289.95188899 10.90018274 292.00053304 C10.9005373 293.52446537 10.9005373 293.52446537 10.90089903 295.07918421 C10.90210024 300.2266176 10.90331568 305.37405099 10.90454102 310.52148438 C10.90478117 311.54301248 10.90502132 312.56454059 10.90526874 313.6170241 C10.91316326 346.74415071 10.93659806 379.87124153 10.96909696 412.99835251 C11.00338412 448.01213325 11.02310516 483.02589304 11.02639931 518.03969085 C11.02681686 521.88238582 11.02729643 525.72508077 11.02782249 529.56777573 C11.02794569 530.51397357 11.02806888 531.46017142 11.0281958 532.43504193 C11.03052917 547.67097128 11.04619671 562.90685912 11.06666434 578.14277366 C11.08690634 593.45346704 11.09240734 608.76411047 11.08289371 624.07481475 C11.07767248 633.17322709 11.08358553 642.27147331 11.10542838 651.36986179 C11.11891716 657.44722546 11.11787652 663.52447455 11.10502642 669.60183931 C11.09811695 673.06477392 11.09750357 676.52739052 11.11458651 679.99029697 C11.12963093 683.72323946 11.12008299 687.45534346 11.10435963 691.18826485 C11.11458183 692.25982795 11.12480404 693.33139105 11.13533601 694.43542576 C11.03514634 705.30831426 7.58586158 713.04620473 0.125 720.90234375 C-8.61033974 728.55254812 -18.27864249 729.79689366 -29.43457031 729.28027344 C-41.06973087 728.24048625 -49.63995548 718.86921788 -57.79296875 711.421875 C-60.41155958 709.08680077 -63.09739308 706.87042252 -65.828125 704.66796875 C-70.602028 700.80721738 -75.12450928 696.731098 -79.640625 692.57421875 C-82.32800134 690.16168771 -85.08027944 687.87290665 -87.890625 685.60546875 C-92.64657919 681.76827844 -97.14567301 677.71161774 -101.640625 673.57421875 C-104.32800134 671.16168771 -107.08027944 668.87290665 -109.890625 666.60546875 C-114.64657919 662.76827844 -119.14567301 658.71161774 -123.640625 654.57421875 C-126.32800134 652.16168771 -129.08027944 649.87290665 -131.890625 647.60546875 C-136.64802168 643.76711461 -141.14846418 639.70924516 -145.64453125 635.5703125 C-148.30937666 633.17839578 -151.03894325 630.91291991 -153.828125 628.66796875 C-158.36298661 625.01040611 -162.64598683 621.15929848 -166.90771484 617.19384766 C-171.01841776 613.39148068 -175.31338084 609.86276283 -179.67578125 606.3515625 C-182.49735995 604.01716285 -185.19653212 601.58556277 -187.890625 599.10546875 C-191.46854963 595.81215176 -195.10602166 592.65895554 -198.890625 589.60546875 C-203.64657919 585.76827844 -208.14567301 581.71161774 -212.640625 577.57421875 C-215.32800134 575.16168771 -218.08027944 572.87290665 -220.890625 570.60546875 C-225.64802168 566.76711461 -230.14846418 562.70924516 -234.64453125 558.5703125 C-237.30937666 556.17839578 -240.03894325 553.91291991 -242.828125 551.66796875 C-247.35605284 548.0159985 -251.63385614 544.17210012 -255.88793945 540.21142578 C-260.18029255 536.23943939 -264.64656852 532.54092271 -269.2109375 528.8828125 C-271.390625 527.10546875 -271.390625 527.10546875 -273.390625 525.10546875 C-276.15132262 524.9064107 -278.81218124 524.83358018 -281.57421875 524.84718323 C-282.43050149 524.84350752 -283.28678423 524.83983182 -284.16901493 524.83604473 C-287.05544452 524.82601732 -289.94168324 524.830225 -292.828125 524.83422852 C-294.89098822 524.82984399 -296.95384967 524.82454284 -299.01670837 524.81838989 C-303.46874068 524.80686416 -307.92072523 524.80142856 -312.37277222 524.8005085 C-319.41595813 524.79857169 -326.45904513 524.78053797 -333.50219727 524.75975037 C-351.00442797 524.71049931 -368.50668575 524.67970677 -386.00897217 524.65844727 C-399.59440403 524.6419161 -413.17975168 524.61906186 -426.76512718 524.57542652 C-433.76212876 524.55366857 -440.75897031 524.54559076 -447.75600338 524.54781926 C-452.11919274 524.54614861 -456.48227837 524.53207513 -460.84543037 524.51460648 C-462.86337083 524.50902202 -464.88133293 524.50850782 -466.89927483 524.51354408 C-481.64782676 524.54648169 -493.79324888 524.01884479 -505.14453125 513.4765625 C-513.55290597 504.39383192 -514.54237026 494.13763885 -514.52433777 482.27018738 C-514.52660333 481.17701889 -514.52886888 480.0838504 -514.53120309 478.95755559 C-514.53753454 475.29355172 -514.53671427 471.62958491 -514.53588867 467.96557617 C-514.53888069 465.33893282 -514.54228332 462.71228991 -514.54606628 460.08564758 C-514.55436448 453.69058711 -514.55712075 447.29553586 -514.55767866 440.90047046 C-514.55815422 435.70093703 -514.56021095 430.50140663 -514.56337929 425.30187416 C-514.57218361 410.55245487 -514.57679901 395.80304284 -514.57604881 381.0536209 C-514.57600886 380.25886301 -514.5759689 379.46410513 -514.57592773 378.64526367 C-514.57588685 377.84953272 -514.57584597 377.05380176 -514.57580385 376.23395775 C-514.57539745 363.33968645 -514.58496609 350.44544436 -514.5990661 337.55118152 C-514.61343765 324.30381065 -514.62033585 311.05645403 -514.61947232 297.80907518 C-514.61914062 290.3747559 -514.62187594 282.94046725 -514.63265038 275.50615501 C-514.64176563 269.17622239 -514.64392221 262.84633427 -514.63714095 256.51639792 C-514.6338809 253.2889557 -514.63489208 250.06161635 -514.6424942 246.83417892 C-514.65021311 243.32994356 -514.64556975 239.82593161 -514.63786316 236.32170105 C-514.64300672 235.3092352 -514.64815029 234.29676935 -514.65344971 233.25362271 C-514.59746411 221.71550779 -512.29095282 212.43491132 -504.2421875 203.80078125 C-495.79714791 195.93219488 -488.12092283 193.93546931 -476.69441223 194.0078125 C-475.81923201 194.00922462 -474.94405178 194.01063673 -474.04235095 194.01209164 C-471.10999064 194.01780737 -468.1777001 194.03050422 -465.24536133 194.04296875 C-463.14265061 194.04812232 -461.03993844 194.05271146 -458.93722534 194.05677795 C-454.40831123 194.06584106 -449.87940981 194.07714354 -445.35050392 194.08963013 C-438.18529253 194.10758142 -431.02013457 194.10955157 -423.85490417 194.10717773 C-422.64531927 194.10680858 -421.43573437 194.10643942 -420.18949538 194.10605907 C-416.46422079 194.10474137 -412.73894635 194.10318397 -409.01367188 194.1015625 C-393.5850629 194.09485155 -378.15679146 194.099708 -362.72827148 194.15673828 C-351.475454 194.19822286 -340.22311146 194.20795086 -328.97024363 194.18062782 C-323.01720551 194.16738868 -317.06515199 194.17023278 -311.11222267 194.21166992 C-305.50980329 194.25033602 -299.90897153 194.24687788 -294.30654526 194.21154594 C-292.25471282 194.20601454 -290.20277126 194.21576832 -288.15110207 194.24223518 C-275.24369144 194.68986159 -275.24369144 194.68986159 -264.27616882 188.69067383 C-262.94747315 187.19131594 -261.6461917 185.66657686 -260.390625 184.10546875 C-258.61399685 182.62885168 -256.82582097 181.1657374 -255.015625 179.73046875 C-250.46281993 176.04975028 -246.15645089 172.17898227 -241.8737793 168.1940918 C-237.76301543 164.39161861 -233.46795977 160.86283576 -229.10546875 157.3515625 C-226.28389005 155.01716285 -223.58471788 152.58556277 -220.890625 150.10546875 C-216.44335388 146.01195784 -211.84345037 142.18104376 -207.140625 138.38671875 C-204.30962922 136.03827907 -201.59678902 133.59636973 -198.890625 131.10546875 C-194.44335388 127.01195784 -189.84345037 123.18104376 -185.140625 119.38671875 C-181.35157093 116.24352617 -177.75793148 112.9038828 -174.13671875 109.5703125 C-171.47187334 107.17839578 -168.74230675 104.91291991 -165.953125 102.66796875 C-161.95838514 99.44603774 -158.14508151 96.0989138 -154.390625 92.60546875 C-149.78058164 88.31591762 -145.01279544 84.30136203 -140.10546875 80.3515625 C-137.28389005 78.01716285 -134.58471788 75.58556277 -131.890625 73.10546875 C-127.44335388 69.01195784 -122.84345037 65.18104376 -118.140625 61.38671875 C-115.30962922 59.03827907 -112.59678902 56.59636973 -109.890625 54.10546875 C-105.44335388 50.01195784 -100.84345037 46.18104376 -96.140625 42.38671875 C-93.30962922 40.03827907 -90.59678902 37.59636973 -87.890625 35.10546875 C-83.44335388 31.01195784 -78.84345037 27.18104376 -74.140625 23.38671875 C-71.30962922 21.03827907 -68.59678902 18.59636973 -65.890625 16.10546875 C-60.56341093 11.21080625 -55.03579879 6.62664062 -49.390625 2.10546875 C-48.59527344 1.44160156 -47.79992187 0.77773437 -46.98046875 0.09375 C-32.57920999 -11.68909807 -14.66965617 -11.62546281 0 0 Z " fill="#101010" transform="translate(561.390625,161.89453125)"/>
<path d="M0 0 C5.07993547 3.58512626 8.70458809 7.52856455 12.34643555 12.53515625 C12.89614014 13.2732251 13.44584473 14.01129395 14.01220703 14.77172852 C15.74018519 17.10067846 17.45041029 19.44191044 19.15893555 21.78515625 C20.26031691 23.27877942 21.36187699 24.77227082 22.46362305 26.265625 C38.25683189 47.79408826 52.27929468 70.28851832 65.0402832 93.73583984 C66.07376254 95.62912347 67.12039036 97.514432 68.1706543 99.3984375 C101.01178425 158.88723008 119.58377737 226.67787756 128.15893555 293.78515625 C128.32409668 295.04489258 128.48925781 296.30462891 128.65942383 297.60253906 C133.92987218 339.84243018 133.80846935 385.60082874 128.15893555 427.78515625 C128.05947632 428.54155396 127.96001709 429.29795166 127.85754395 430.07727051 C119.14776097 495.96619134 99.92882921 558.3875535 70.15893555 617.78515625 C69.68101562 618.74357422 69.2030957 619.70199219 68.71069336 620.68945312 C54.51180933 649.00544215 37.27775511 675.5632682 18.15893555 700.78515625 C17.22967578 702.02929533 16.30111652 703.27395851 15.3737793 704.51953125 C0.95924272 723.60704795 0.95924272 723.60704795 -11.84106445 726.78515625 C-22.29193877 728.21696281 -31.72047395 727.10611044 -40.45825195 720.9375 C-48.56809842 714.30764035 -53.58810744 706.2677043 -54.90356445 695.78515625 C-55.26160437 685.25052024 -52.20956249 676.9994186 -45.84106445 668.78515625 C-43.86016449 666.22399267 -41.88101284 663.66148573 -39.90356445 661.09765625 C-39.34620605 660.37586182 -38.78884766 659.65406738 -38.21459961 658.91040039 C11.66142557 593.79796842 43.82327884 515.72768652 56.15893555 434.78515625 C56.31056152 433.79306152 56.4621875 432.8009668 56.6184082 431.77880859 C57.60944151 425.12854131 58.42702302 418.46849044 59.15893555 411.78515625 C59.26334961 410.89006348 59.36776367 409.9949707 59.4753418 409.07275391 C63.1330166 376.63403983 62.99670985 342.19766311 59.15893555 309.78515625 C59.0300293 308.63917969 58.90112305 307.49320312 58.76831055 306.3125 C48.57875991 217.34262735 14.92055362 131.84694649 -39.71606445 60.78515625 C-41.30786301 58.70883656 -42.89880499 56.63188069 -44.48754883 54.55322266 C-45.61631135 53.07874607 -46.75135218 51.60907841 -47.88793945 50.140625 C-53.78355132 42.04145523 -55.75515884 32.70662553 -54.53637695 22.80078125 C-52.38720134 13.47963758 -47.37965268 5.64379691 -39.84106445 -0.21484375 C-27.90517532 -7.65849824 -11.77315458 -7.76862713 0 0 Z " fill="#101010" transform="translate(860.841064453125,162.21484375)"/>
<path d="M0 0 C7.87592542 5.81165556 13.20010478 14.42019447 18.48510742 22.50488281 C19.18603516 23.56884277 19.88696289 24.63280273 20.60913086 25.72900391 C25.8073566 33.65888885 30.88300784 41.62423481 35.54760742 49.87988281 C36.00055176 50.68039062 36.45349609 51.48089844 36.92016602 52.30566406 C69.30033867 109.87989269 87.70711589 172.12795667 93.54760742 237.87988281 C93.61963379 238.65058105 93.69166016 239.4212793 93.76586914 240.21533203 C100.36185613 313.15610064 85.62319213 389.9142507 54.8190918 456.14306641 C53.63139547 458.69953259 52.46923534 461.26600093 51.31323242 463.83691406 C40.44155507 487.7333212 26.70242389 510.76451083 11.11010742 531.87988281 C10.65047607 532.50822021 10.19084473 533.13655762 9.71728516 533.78393555 C3.38261715 542.13225771 -3.77980942 547.37824868 -14.18676758 549.41503906 C-24.3442844 550.6632085 -33.04113186 548.76933166 -41.45239258 542.87988281 C-48.12459323 537.61730201 -51.79006587 530.86686293 -54.45239258 522.87988281 C-55.67140546 507.85119543 -52.08265326 498.00924093 -43.01660156 486.0480957 C-6.74526647 437.99021538 13.05261136 377.80450616 21.54760742 318.87988281 C21.67506348 318.01169922 21.80251953 317.14351562 21.93383789 316.24902344 C31.63145387 247.71728255 18.31911762 173.91691478 -11.45239258 111.87988281 C-12.08250244 110.55609619 -12.08250244 110.55609619 -12.7253418 109.20556641 C-21.42133263 91.03652363 -31.42751735 73.94786815 -42.96801758 57.44628906 C-45.20352915 54.24964446 -47.3855651 51.02366445 -49.51489258 47.75488281 C-50.30573242 46.54445313 -50.30573242 46.54445313 -51.11254883 45.30957031 C-55.76635215 36.8703118 -55.83668235 26.7194353 -53.64770508 17.48535156 C-50.39753781 8.75472983 -44.64356807 1.87792102 -36.38989258 -2.55761719 C-23.99477603 -7.93292516 -11.41031042 -7.43669226 0 0 Z " fill="#101010" transform="translate(772.452392578125,251.1201171875)"/>
<path d="M0 0 C7.0388306 5.5507641 11.79512631 12.91813914 16.05444336 20.68261719 C16.56789307 21.60236328 17.08134277 22.52210938 17.61035156 23.46972656 C57.08941861 94.71647681 69.12998012 177.52934434 46.9699707 256.51513672 C42.19983736 272.69288496 36.34896045 288.41677255 29.05444336 303.62011719 C28.6823877 304.41047363 28.31033203 305.20083008 27.92700195 306.01513672 C8.38724738 347.37956932 8.38724738 347.37956932 -9.58618164 353.92871094 C-18.74906351 356.6138601 -27.63576252 356.09171819 -36.32055664 351.99511719 C-46.20995842 346.49666192 -51.38049597 339.31529919 -54.94555664 328.62011719 C-55.94669813 314.1610082 -52.94483201 305.62511068 -45.21508789 293.33496094 C-13.78062521 242.54138545 -5.139034 179.42795139 -18.30102539 121.52636719 C-24.50144576 95.67857654 -34.87159137 70.62330863 -49.46801758 48.36401367 C-55.16063272 39.5841507 -55.92904256 30.94671937 -54.94555664 20.62011719 C-52.60128346 10.93576535 -47.1641633 3.72299489 -38.86743164 -1.75097656 C-26.3405875 -8.48292233 -11.84463693 -8.16433336 0 0 Z " fill="#101010" transform="translate(675.945556640625,348.3798828125)"/>
</svg>
